<svg width="334" height="334" viewBox="0 0 334 334" fill="none" xmlns="http://www.w3.org/2000/svg">
<g filter="url(#filter0_ddi_1550_2868)">
<path d="M172 132C172 129.239 169.761 127 167 127C164.239 127 162 129.239 162 132V137C162 139.761 164.239 142 167 142C169.761 142 172 139.761 172 137V132Z" fill="url(#paint0_linear_1550_2868)"/>
<path d="M195.284 145.787C197.237 143.834 197.237 140.668 195.284 138.715C193.331 136.763 190.166 136.763 188.213 138.715L184.677 142.251C182.725 144.204 182.725 147.369 184.677 149.322C186.63 151.275 189.796 151.275 191.749 149.322L195.284 145.787Z" fill="url(#paint1_linear_1550_2868)"/>
<path d="M207 167C207 169.761 204.761 172 202 172H197C194.239 172 192 169.761 192 167C192 164.239 194.239 162 197 162H202C204.761 162 207 164.239 207 167Z" fill="url(#paint2_linear_1550_2868)"/>
<path d="M142.251 149.322C144.204 151.275 147.369 151.275 149.322 149.322C151.275 147.37 151.275 144.204 149.322 142.251L145.786 138.716C143.834 136.763 140.668 136.763 138.715 138.716C136.763 140.668 136.763 143.834 138.715 145.787L142.251 149.322Z" fill="url(#paint3_linear_1550_2868)"/>
<path d="M142 167C142 169.761 139.761 172 137 172H132C129.239 172 127 169.761 127 167C127 164.239 129.239 162 132 162H137C139.761 162 142 164.239 142 167Z" fill="url(#paint4_linear_1550_2868)"/>
<path d="M157 197V192H177V197C177 202.523 172.523 207 167 207C161.477 207 157 202.523 157 197Z" fill="url(#paint5_linear_1550_2868)"/>
<path d="M177.004 187C177.077 185.298 178.038 183.769 179.384 182.706C184.023 179.043 187 173.369 187 167C187 155.954 178.046 147 167 147C155.954 147 147 155.954 147 167C147 173.369 149.977 179.043 154.616 182.706C155.962 183.769 156.923 185.298 156.996 187H177.004Z" fill="url(#paint6_linear_1550_2868)"/>
</g>
<defs>
<filter id="filter0_ddi_1550_2868" x="0" y="0" width="334" height="334" filterUnits="userSpaceOnUse" color-interpolation-filters="sRGB">
<feFlood flood-opacity="0" result="BackgroundImageFix"/>
<feColorMatrix in="SourceAlpha" type="matrix" values="0 0 0 0 0 0 0 0 0 0 0 0 0 0 0 0 0 0 127 0" result="hardAlpha"/>
<feOffset/>
<feGaussianBlur stdDeviation="63.5"/>
<feComposite in2="hardAlpha" operator="out"/>
<feColorMatrix type="matrix" values="0 0 0 0 0.894118 0 0 0 0 0.152941 0 0 0 0 0.160784 0 0 0 0.5 0"/>
<feBlend mode="normal" in2="BackgroundImageFix" result="effect1_dropShadow_1550_2868"/>
<feColorMatrix in="SourceAlpha" type="matrix" values="0 0 0 0 0 0 0 0 0 0 0 0 0 0 0 0 0 0 127 0" result="hardAlpha"/>
<feOffset/>
<feGaussianBlur stdDeviation="16.5"/>
<feComposite in2="hardAlpha" operator="out"/>
<feColorMatrix type="matrix" values="0 0 0 0 0.894118 0 0 0 0 0.152941 0 0 0 0 0.160784 0 0 0 0.2 0"/>
<feBlend mode="normal" in2="effect1_dropShadow_1550_2868" result="effect2_dropShadow_1550_2868"/>
<feBlend mode="normal" in="SourceGraphic" in2="effect2_dropShadow_1550_2868" result="shape"/>
<feColorMatrix in="SourceAlpha" type="matrix" values="0 0 0 0 0 0 0 0 0 0 0 0 0 0 0 0 0 0 127 0" result="hardAlpha"/>
<feOffset/>
<feGaussianBlur stdDeviation="6"/>
<feComposite in2="hardAlpha" operator="arithmetic" k2="-1" k3="1"/>
<feColorMatrix type="matrix" values="0 0 0 0 0.894118 0 0 0 0 0.152941 0 0 0 0 0.160784 0 0 0 0.5 0"/>
<feBlend mode="normal" in2="shape" result="effect3_innerShadow_1550_2868"/>
</filter>
<linearGradient id="paint0_linear_1550_2868" x1="141" y1="103" x2="189" y2="245" gradientUnits="userSpaceOnUse">
<stop offset="0.423939" stop-color="#FF2D2F"/>
<stop offset="1" stop-color="#770001"/>
</linearGradient>
<linearGradient id="paint1_linear_1550_2868" x1="141" y1="103" x2="189" y2="245" gradientUnits="userSpaceOnUse">
<stop offset="0.423939" stop-color="#FF2D2F"/>
<stop offset="1" stop-color="#770001"/>
</linearGradient>
<linearGradient id="paint2_linear_1550_2868" x1="141" y1="103" x2="189" y2="245" gradientUnits="userSpaceOnUse">
<stop offset="0.423939" stop-color="#FF2D2F"/>
<stop offset="1" stop-color="#770001"/>
</linearGradient>
<linearGradient id="paint3_linear_1550_2868" x1="141" y1="103" x2="189" y2="245" gradientUnits="userSpaceOnUse">
<stop offset="0.423939" stop-color="#FF2D2F"/>
<stop offset="1" stop-color="#770001"/>
</linearGradient>
<linearGradient id="paint4_linear_1550_2868" x1="141" y1="103" x2="189" y2="245" gradientUnits="userSpaceOnUse">
<stop offset="0.423939" stop-color="#FF2D2F"/>
<stop offset="1" stop-color="#770001"/>
</linearGradient>
<linearGradient id="paint5_linear_1550_2868" x1="141" y1="103" x2="189" y2="245" gradientUnits="userSpaceOnUse">
<stop offset="0.423939" stop-color="#FF2D2F"/>
<stop offset="1" stop-color="#770001"/>
</linearGradient>
<linearGradient id="paint6_linear_1550_2868" x1="141" y1="103" x2="189" y2="245" gradientUnits="userSpaceOnUse">
<stop offset="0.423939" stop-color="#FF2D2F"/>
<stop offset="1" stop-color="#770001"/>
</linearGradient>
</defs>
</svg>
