<svg width="531" height="415" viewBox="0 0 531 415" fill="none" xmlns="http://www.w3.org/2000/svg">
<g filter="url(#filter0_ddi_705_9982)">
<path d="M-173.832 363.058C-172.542 363.054 -171.453 363.88 -171.044 365.022L251.686 363.553L278.692 390.398L363.043 390.105C363.444 388.96 364.528 388.127 365.818 388.122C367.457 388.116 368.788 389.439 368.794 391.08C368.8 392.721 367.478 394.053 365.838 394.059C364.549 394.063 363.459 393.238 363.05 392.096L277.87 392.392L250.864 365.548L-171.055 367.013C-171.456 368.158 -172.54 368.991 -173.83 368.996C-175.451 368.983 -176.782 367.66 -176.787 366.037C-176.793 364.396 -175.471 363.064 -173.832 363.058Z" fill="url(#paint0_linear_705_9982)"/>
<path d="M-173.892 345.929C-172.602 345.925 -171.512 346.751 -171.103 347.893L279.368 346.328L302.179 369.02C303.283 368.5 304.609 368.661 305.534 369.561C306.698 370.719 306.705 372.581 305.548 373.747C304.392 374.912 302.531 374.919 301.367 373.761C300.461 372.861 300.29 371.515 300.802 370.407L278.546 348.304L-171.115 349.866C-171.516 351.01 -172.6 351.844 -173.871 351.848C-175.51 351.854 -176.841 350.531 -176.847 348.89C-176.853 347.267 -175.531 345.935 -173.892 345.929Z" fill="url(#paint1_linear_705_9982)"/>
<path d="M-173.951 328.783C-172.662 328.778 -171.572 329.604 -171.163 330.746L304.582 329.093L324.647 308.871C324.127 307.766 324.288 306.438 325.188 305.513C326.344 304.348 328.205 304.341 329.369 305.499C330.534 306.656 330.54 308.519 329.384 309.684C328.484 310.591 327.14 310.761 326.033 310.249L305.4 331.045L-171.174 332.7C-171.576 333.863 -172.66 334.697 -173.931 334.701C-175.57 334.707 -176.901 333.384 -176.907 331.761C-176.912 330.12 -175.591 328.788 -173.951 328.783Z" fill="url(#paint2_linear_705_9982)"/>
<path d="M-174.011 311.654C-172.721 311.649 -171.632 312.475 -171.222 313.617L293.102 312.004L325.998 278.831L398.153 278.58L429.375 309.595C430.478 309.075 431.805 309.236 432.729 310.136C433.894 311.294 433.9 313.156 432.744 314.322C431.587 315.487 429.727 315.494 428.562 314.336C427.657 313.436 427.486 312.091 427.998 310.983L397.368 280.537L326.833 280.782L293.937 313.956L-171.234 315.572C-171.635 316.716 -172.719 317.55 -174.009 317.554C-175.63 317.578 -176.961 316.255 -176.966 314.614C-176.972 312.992 -175.65 311.66 -174.011 311.654Z" fill="url(#paint3_linear_705_9982)"/>
<path d="M-174.096 287.168C-172.806 287.164 -171.717 287.99 -171.307 289.131L284.027 287.55L310.847 260.519L405.421 260.19L432.428 287.034L449.928 286.974C450.329 285.829 451.413 284.996 452.703 284.991C454.342 284.985 455.673 286.308 455.679 287.931C455.685 289.572 454.363 290.885 452.723 290.891C451.434 290.896 450.344 290.07 449.935 288.928L431.624 288.992L404.617 262.147L311.664 262.47L284.844 289.501L-171.319 291.086C-171.72 292.23 -172.804 293.064 -174.094 293.068C-175.733 293.074 -177.064 291.751 -177.07 290.129C-177.057 288.506 -175.735 287.174 -174.096 287.168Z" fill="url(#paint4_linear_705_9982)"/>
<path d="M-174.181 262.683C-172.891 262.679 -171.801 263.505 -171.392 264.646L279.89 263.079L297.366 245.465L350.769 245.28L364.812 231.126C364.292 230.021 364.453 228.693 365.353 227.768C366.509 226.603 368.37 226.596 369.534 227.754C370.699 228.911 370.705 230.774 369.549 231.939C368.649 232.846 367.305 233.016 366.198 232.504L351.568 247.231L298.165 247.417L280.689 265.031L-171.404 266.601C-171.805 267.745 -172.889 268.579 -174.179 268.583C-175.8 268.607 -177.131 267.284 -177.136 265.662C-177.142 264.021 -175.82 262.689 -174.181 262.683Z" fill="url(#paint5_linear_705_9982)"/>
<path d="M-174.266 238.198C-172.976 238.193 -171.887 239.019 -171.477 240.161L263.502 238.65L280.152 221.85L338.013 221.649C338.414 220.505 339.498 219.671 340.787 219.667C342.427 219.661 343.758 220.984 343.763 222.625C343.769 224.266 342.447 225.598 340.808 225.604C339.518 225.608 338.429 224.783 338.019 223.641L280.969 223.839L264.319 240.639L-171.489 242.152C-171.89 243.297 -172.974 244.13 -174.264 244.135C-175.903 244.14 -177.234 242.817 -177.24 241.195C-177.227 239.536 -175.905 238.203 -174.266 238.198Z" fill="url(#paint6_linear_705_9982)"/>
<path d="M-174.351 213.712C-173.061 213.708 -171.971 214.534 -171.562 215.676L219.759 214.316C220.16 213.172 221.244 212.338 222.533 212.334C224.173 212.328 225.504 213.651 225.51 215.292C225.515 216.933 224.194 218.265 222.554 218.271C221.265 218.275 220.175 217.449 219.766 216.308L-171.574 217.667C-171.975 218.811 -173.059 219.645 -174.349 219.649C-175.97 219.637 -177.301 218.314 -177.306 216.691C-177.312 215.05 -175.99 213.718 -174.351 213.712Z" fill="url(#paint7_linear_705_9982)"/>
<path d="M-174.419 194.132C-173.129 194.127 -172.039 194.953 -171.63 196.095L285.362 194.507L295.917 204.999C297.021 204.479 298.348 204.64 299.272 205.54C300.437 206.698 300.443 208.56 299.287 209.726C298.13 210.891 296.269 210.898 295.105 209.74C294.199 208.84 294.029 207.495 294.541 206.387L284.559 196.465L-171.642 198.049C-172.043 199.194 -173.127 200.027 -174.416 200.032C-176.056 200.037 -177.387 198.715 -177.393 197.074C-177.38 195.469 -176.058 194.137 -174.419 194.132Z" fill="url(#paint8_linear_705_9982)"/>
<path d="M-174.487 174.55C-173.198 174.546 -172.108 175.372 -171.699 176.514L303.236 174.864L331.463 202.921L396.287 202.696L403.774 210.137C404.877 209.617 406.204 209.778 407.128 210.679C408.293 211.836 408.299 213.698 407.143 214.864C405.986 216.03 404.126 216.036 402.961 214.878C402.055 213.978 401.885 212.633 402.397 211.525L395.483 204.671L330.659 204.896L302.432 176.84L-171.71 178.487C-172.112 179.631 -173.196 180.465 -174.485 180.469C-176.124 180.475 -177.455 179.152 -177.461 177.529C-177.448 175.888 -176.127 174.556 -174.487 174.55Z" fill="url(#paint9_linear_705_9982)"/>
<path d="M-174.555 154.951C-173.266 154.947 -172.176 155.772 -171.767 156.914L310.5 155.239L341.592 186.144L412.532 185.897L431.219 167.063L457.69 166.971C458.092 165.826 459.176 164.993 460.465 164.988C462.105 164.983 463.436 166.305 463.441 167.928C463.447 169.569 462.125 170.901 460.486 170.907C459.196 170.911 458.107 170.085 457.697 168.944L432.037 169.033L413.349 187.868L340.788 188.12L309.696 157.215L-171.778 158.887C-172.18 160.032 -173.264 160.865 -174.553 160.87C-176.193 160.875 -177.523 159.552 -177.529 157.911C-177.516 156.289 -176.195 154.957 -174.555 154.951Z" fill="url(#paint10_linear_705_9982)"/>
<path d="M-174.623 135.37C-173.334 135.366 -172.244 136.192 -171.835 137.333L310.432 135.658L341.117 166.159L401.041 165.951L406.677 160.271C406.157 159.166 406.318 157.838 407.218 156.913C408.374 155.747 410.235 155.741 411.399 156.899C412.564 158.056 412.571 159.918 411.414 161.084C410.515 161.991 409.17 162.161 408.063 161.649L401.84 167.902L340.277 168.116L309.591 137.616L-171.846 139.288C-172.248 140.432 -173.331 141.266 -174.621 141.27C-176.26 141.276 -177.591 139.953 -177.597 138.331C-177.584 136.708 -176.263 135.376 -174.623 135.37Z" fill="url(#paint11_linear_705_9982)"/>
<path d="M509.33 125.859C508.431 126.765 507.087 126.936 505.98 126.424L493.056 139.43L355.266 139.909L333.176 117.952L-171.914 119.707C-172.315 120.851 -173.399 121.685 -174.689 121.689C-176.328 121.695 -177.659 120.372 -177.665 118.749C-177.671 117.108 -176.349 115.776 -174.709 115.771C-173.42 115.766 -172.33 116.592 -171.921 117.734L333.998 115.977L356.088 137.933L492.257 137.46L504.593 125.027C504.074 123.923 504.235 122.595 505.134 121.67C506.291 120.504 508.151 120.497 509.316 121.655C510.48 122.831 510.487 124.693 509.33 125.859Z" fill="url(#paint12_linear_705_9982)"/>
<path d="M472.117 114.722L466.922 119.958L402.503 120.182L380.413 98.2255L-171.982 100.144C-172.384 101.289 -173.468 102.122 -174.757 102.127C-176.397 102.132 -177.728 100.809 -177.733 99.1685C-177.739 97.5275 -176.417 96.1954 -174.778 96.1897C-173.488 96.1852 -172.399 97.0111 -171.989 98.1529L381.217 96.2314L403.307 118.188L466.086 117.97L470.712 113.308C470.192 112.203 470.354 110.875 471.253 109.95C472.41 108.784 474.27 108.778 475.435 109.935C476.599 111.093 476.606 112.955 475.449 114.121C474.55 115.064 473.206 115.235 472.117 114.722Z" fill="url(#paint13_linear_705_9982)"/>
<path d="M452.197 80.8473C451.291 79.947 451.12 78.6016 451.632 77.4935L429.173 55.1878L389.622 55.3252L366.474 78.6559L-172.05 80.5263C-172.452 81.6709 -173.536 82.5044 -174.825 82.5089C-176.465 82.5146 -177.796 81.1916 -177.801 79.5691C-177.807 77.9281 -176.485 76.596 -174.846 76.5903C-173.556 76.5858 -172.466 77.4118 -172.057 78.5535L365.657 76.6859L388.805 53.3552L429.976 53.2122L453.009 76.0875C454.112 75.5674 455.439 75.7287 456.363 76.6289C457.528 77.7865 457.535 79.6487 456.378 80.8143C455.24 81.9983 453.361 82.0048 452.197 80.8473Z" fill="url(#paint14_linear_705_9982)"/>
<path d="M383.737 26.0664L350.915 59.1476L-172.118 60.9642C-172.519 62.1088 -173.603 62.9423 -174.893 62.9467C-176.532 62.9524 -177.863 61.6295 -177.869 60.007C-177.874 58.366 -176.553 57.0339 -174.913 57.0282C-173.624 57.0237 -172.534 57.8497 -172.125 58.9914L350.097 57.1775L382.351 24.6699C381.831 23.5655 381.992 22.2374 382.892 21.3124C384.048 20.1467 385.909 20.1403 387.073 21.2978C388.238 22.4554 388.244 24.3176 387.088 25.4832C386.188 26.4082 384.844 26.5788 383.737 26.0664Z" fill="url(#paint15_linear_705_9982)"/>
</g>
<defs>
<filter id="filter0_ddi_705_9982" x="-197.869" y="0.434082" width="728.062" height="413.625" filterUnits="userSpaceOnUse" color-interpolation-filters="sRGB">
<feFlood flood-opacity="0" result="BackgroundImageFix"/>
<feColorMatrix in="SourceAlpha" type="matrix" values="0 0 0 0 0 0 0 0 0 0 0 0 0 0 0 0 0 0 127 0" result="hardAlpha"/>
<feOffset/>
<feGaussianBlur stdDeviation="10"/>
<feComposite in2="hardAlpha" operator="out"/>
<feColorMatrix type="matrix" values="0 0 0 0 1 0 0 0 0 1 0 0 0 0 1 0 0 0 0.2 0"/>
<feBlend mode="normal" in2="BackgroundImageFix" result="effect1_dropShadow_705_9982"/>
<feColorMatrix in="SourceAlpha" type="matrix" values="0 0 0 0 0 0 0 0 0 0 0 0 0 0 0 0 0 0 127 0" result="hardAlpha"/>
<feOffset/>
<feGaussianBlur stdDeviation="2.5"/>
<feComposite in2="hardAlpha" operator="out"/>
<feColorMatrix type="matrix" values="0 0 0 0 1 0 0 0 0 1 0 0 0 0 1 0 0 0 0.15 0"/>
<feBlend mode="normal" in2="effect1_dropShadow_705_9982" result="effect2_dropShadow_705_9982"/>
<feBlend mode="normal" in="SourceGraphic" in2="effect2_dropShadow_705_9982" result="shape"/>
<feColorMatrix in="SourceAlpha" type="matrix" values="0 0 0 0 0 0 0 0 0 0 0 0 0 0 0 0 0 0 127 0" result="hardAlpha"/>
<feOffset dy="4"/>
<feGaussianBlur stdDeviation="3.5"/>
<feComposite in2="hardAlpha" operator="arithmetic" k2="-1" k3="1"/>
<feColorMatrix type="matrix" values="0 0 0 0 1 0 0 0 0 1 0 0 0 0 1 0 0 0 0.3 0"/>
<feBlend mode="normal" in2="shape" result="effect3_innerShadow_705_9982"/>
</filter>
<linearGradient id="paint0_linear_705_9982" x1="-176.741" y1="379.5" x2="368.74" y2="377.605" gradientUnits="userSpaceOnUse">
<stop stop-color="white"/>
<stop offset="0.7213" stop-color="white"/>
<stop offset="0.9332" stop-color="white"/>
</linearGradient>
<linearGradient id="paint1_linear_705_9982" x1="-176.805" y1="361.11" x2="306.355" y2="359.431" gradientUnits="userSpaceOnUse">
<stop stop-color="white"/>
<stop offset="0.7213" stop-color="white"/>
<stop offset="0.9332" stop-color="white"/>
</linearGradient>
<linearGradient id="paint2_linear_705_9982" x1="-176.946" y1="320.563" x2="330.264" y2="318.801" gradientUnits="userSpaceOnUse">
<stop stop-color="white"/>
<stop offset="0.7213" stop-color="white"/>
<stop offset="0.9332" stop-color="white"/>
</linearGradient>
<linearGradient id="paint3_linear_705_9982" x1="-177.02" y1="299.081" x2="433.537" y2="296.96" gradientUnits="userSpaceOnUse">
<stop stop-color="white"/>
<stop offset="0.7213" stop-color="white"/>
<stop offset="0.9332" stop-color="white"/>
</linearGradient>
<linearGradient id="paint4_linear_705_9982" x1="-177.095" y1="277.658" x2="455.629" y2="275.46" gradientUnits="userSpaceOnUse">
<stop stop-color="white"/>
<stop offset="0.7213" stop-color="white"/>
<stop offset="0.9332" stop-color="white"/>
</linearGradient>
<linearGradient id="paint5_linear_705_9982" x1="-177.195" y1="248.706" x2="370.456" y2="246.803" gradientUnits="userSpaceOnUse">
<stop stop-color="white"/>
<stop offset="0.7213" stop-color="white"/>
<stop offset="0.9332" stop-color="white"/>
</linearGradient>
<linearGradient id="paint6_linear_705_9982" x1="-177.25" y1="232.802" x2="343.77" y2="230.993" gradientUnits="userSpaceOnUse">
<stop stop-color="white"/>
<stop offset="0.7213" stop-color="white"/>
<stop offset="0.9332" stop-color="white"/>
</linearGradient>
<linearGradient id="paint7_linear_705_9982" x1="-177.306" y1="216.687" x2="225.484" y2="215.288" gradientUnits="userSpaceOnUse">
<stop stop-color="white"/>
<stop offset="0.7213" stop-color="white"/>
<stop offset="0.9332" stop-color="white"/>
</linearGradient>
<linearGradient id="paint8_linear_705_9982" x1="-177.353" y1="203.198" x2="300.098" y2="201.54" gradientUnits="userSpaceOnUse">
<stop stop-color="white"/>
<stop offset="0.7213" stop-color="white"/>
<stop offset="0.9332" stop-color="white"/>
</linearGradient>
<linearGradient id="paint9_linear_705_9982" x1="-177.378" y1="196.155" x2="407.906" y2="194.122" gradientUnits="userSpaceOnUse">
<stop stop-color="white"/>
<stop offset="0.7213" stop-color="white"/>
<stop offset="0.9332" stop-color="white"/>
</linearGradient>
<linearGradient id="paint10_linear_705_9982" x1="-177.46" y1="172.443" x2="463.419" y2="170.217" gradientUnits="userSpaceOnUse">
<stop stop-color="white"/>
<stop offset="0.7213" stop-color="white"/>
<stop offset="0.9332" stop-color="white"/>
</linearGradient>
<linearGradient id="paint11_linear_705_9982" x1="-177.529" y1="152.656" x2="412.236" y2="150.607" gradientUnits="userSpaceOnUse">
<stop stop-color="white"/>
<stop offset="0.7213" stop-color="white"/>
<stop offset="0.9332" stop-color="white"/>
</linearGradient>
<linearGradient id="paint12_linear_705_9982" x1="-177.612" y1="128.784" x2="510.198" y2="126.395" gradientUnits="userSpaceOnUse">
<stop stop-color="white"/>
<stop offset="0.7213" stop-color="white"/>
<stop offset="0.9332" stop-color="white"/>
</linearGradient>
<linearGradient id="paint13_linear_705_9982" x1="-177.68" y1="109.197" x2="476.295" y2="106.926" gradientUnits="userSpaceOnUse">
<stop stop-color="white"/>
<stop offset="0.7213" stop-color="white"/>
<stop offset="0.9332" stop-color="white"/>
</linearGradient>
<linearGradient id="paint14_linear_705_9982" x1="-177.817" y1="69.6252" x2="457.201" y2="67.4196" gradientUnits="userSpaceOnUse">
<stop stop-color="white"/>
<stop offset="0.7213" stop-color="white"/>
<stop offset="0.9332" stop-color="white"/>
</linearGradient>
<linearGradient id="paint15_linear_705_9982" x1="-177.91" y1="42.6795" x2="388.005" y2="40.7139" gradientUnits="userSpaceOnUse">
<stop stop-color="white"/>
<stop offset="0.7213" stop-color="white"/>
<stop offset="0.9332" stop-color="white"/>
</linearGradient>
</defs>
</svg>
