<svg width="441" height="414" viewBox="0 0 441 414" fill="none" xmlns="http://www.w3.org/2000/svg">
<g filter="url(#filter0_ddi_705_9946)">
<path d="M704.91 360.682C703.621 360.682 702.534 361.512 702.129 362.655L279.398 362.727L252.489 389.669L168.138 389.683C167.732 388.54 166.645 387.711 165.356 387.711C163.716 387.711 162.39 389.039 162.39 390.68C162.391 392.321 163.717 393.648 165.357 393.648C166.646 393.648 167.733 392.818 168.138 391.675L253.318 391.66L280.227 364.718L702.148 364.647C702.553 365.79 703.64 366.619 704.93 366.619C706.551 366.6 707.877 365.272 707.877 363.65C707.876 362.009 706.55 360.682 704.91 360.682Z" fill="url(#paint0_linear_705_9946)"/>
<path d="M704.908 343.553C703.618 343.553 702.532 344.383 702.127 345.526L251.653 345.602L228.925 368.377C227.819 367.861 226.493 368.027 225.572 368.931C224.412 370.093 224.412 371.955 225.573 373.116C226.733 374.278 228.594 374.277 229.754 373.115C230.657 372.212 230.822 370.866 230.306 369.76L252.482 347.575L702.145 347.499C702.551 348.642 703.638 349.472 704.909 349.471C706.548 349.471 707.875 348.143 707.874 346.502C707.874 344.88 706.547 343.553 704.908 343.553Z" fill="url(#paint1_linear_705_9946)"/>
<path d="M704.904 326.406C703.615 326.406 702.528 327.236 702.123 328.379L226.375 328.459L206.237 308.31C206.753 307.204 206.587 305.876 205.684 304.955C204.523 303.793 202.663 303.794 201.502 304.955C200.342 306.117 200.342 307.979 201.503 309.141C202.406 310.044 203.751 310.21 204.856 309.693L225.565 330.414L702.142 330.333C702.547 331.495 703.634 332.324 704.905 332.324C706.545 332.324 707.871 330.996 707.871 329.374C707.87 327.733 706.544 326.405 704.904 326.406Z" fill="url(#paint2_linear_705_9946)"/>
<path d="M704.901 309.277C703.612 309.277 702.525 310.107 702.12 311.25L237.793 311.329L204.777 278.275L132.621 278.287L101.512 309.416C100.407 308.9 99.0806 309.066 98.1597 309.97C96.9993 311.131 96.9996 312.994 98.1604 314.155C99.3211 315.316 101.182 315.316 102.342 314.154C103.245 313.251 103.41 311.905 102.894 310.799L133.413 280.242L203.948 280.23L236.965 313.283L702.139 313.205C702.544 314.348 703.631 315.177 704.921 315.177C706.542 315.195 707.868 313.867 707.868 312.227C707.867 310.604 706.541 309.277 704.901 309.277Z" fill="url(#paint3_linear_705_9946)"/>
<path d="M704.898 284.791C703.608 284.792 702.521 285.621 702.116 286.765L246.779 286.842L219.861 259.908L125.286 259.924L98.3772 286.867L80.877 286.87C80.4715 285.727 79.3845 284.897 78.095 284.897C76.4555 284.898 75.1294 286.225 75.1297 287.848C75.1299 289.489 76.4565 290.798 78.096 290.797C79.3855 290.797 80.4722 289.967 80.8773 288.824L99.188 288.821L126.097 261.879L219.051 261.863L245.969 288.796L702.135 288.719C702.541 289.862 703.627 290.692 704.917 290.691C706.556 290.691 707.883 289.363 707.882 287.741C707.864 286.118 706.537 284.791 704.898 284.791Z" fill="url(#paint4_linear_705_9946)"/>
<path d="M704.894 260.306C703.604 260.306 702.517 261.136 702.112 262.279L250.828 262.355L233.288 244.806L179.884 244.815L165.79 230.712C166.305 229.606 166.139 228.278 165.236 227.356C164.076 226.195 162.215 226.195 161.055 227.357C159.895 228.519 159.895 230.381 161.056 231.542C161.958 232.446 163.303 232.611 164.408 232.095L179.093 246.769L232.496 246.76L250.036 264.31L702.131 264.233C702.536 265.377 703.623 266.206 704.913 266.206C706.534 266.224 707.86 264.896 707.86 263.274C707.86 261.633 706.533 260.305 704.894 260.306Z" fill="url(#paint5_linear_705_9946)"/>
<path d="M704.89 235.82C703.6 235.821 702.514 236.65 702.108 237.794L267.127 237.867L250.416 221.128L192.554 221.138C192.149 219.995 191.062 219.166 189.773 219.166C188.133 219.166 186.807 220.494 186.807 222.135C186.807 223.776 188.134 225.103 189.774 225.103C191.063 225.103 192.15 224.273 192.555 223.13L249.606 223.12L266.316 239.859L702.127 239.785C702.533 240.928 703.62 241.758 704.909 241.757C706.549 241.757 707.875 240.429 707.875 238.807C707.856 237.147 706.529 235.82 704.89 235.82Z" fill="url(#paint6_linear_705_9946)"/>
<path d="M704.886 211.335C703.596 211.335 702.51 212.165 702.104 213.308L310.781 213.375C310.376 212.231 309.289 211.402 307.999 211.402C306.36 211.402 305.034 212.73 305.034 214.371C305.034 216.012 306.361 217.339 308 217.339C309.29 217.339 310.376 216.509 310.781 215.366L702.123 215.3C702.529 216.443 703.616 217.272 704.905 217.272C706.526 217.253 707.852 215.926 707.852 214.303C707.852 212.662 706.525 211.335 704.886 211.335Z" fill="url(#paint7_linear_705_9946)"/>
<path d="M704.882 191.754C703.592 191.754 702.506 192.584 702.101 193.727L245.105 193.804L234.589 204.334C233.483 203.818 232.157 203.984 231.236 204.888C230.076 206.05 230.076 207.912 231.237 209.073C232.397 210.235 234.258 210.234 235.418 209.073C236.321 208.169 236.486 206.823 235.97 205.717L245.916 195.759L702.119 195.681C702.525 196.824 703.612 197.654 704.901 197.654C706.541 197.654 707.867 196.326 707.867 194.685C707.848 193.081 706.521 191.753 704.882 191.754Z" fill="url(#paint8_linear_705_9946)"/>
<path d="M704.879 172.173C703.589 172.173 702.502 173.003 702.097 174.146L227.16 174.227L199.035 202.386L134.211 202.397L126.751 209.866C125.646 209.349 124.32 209.516 123.399 210.419C122.239 211.581 122.239 213.443 123.4 214.605C124.56 215.766 126.421 215.766 127.581 214.604C128.484 213.7 128.649 212.354 128.133 211.248L135.022 204.37L199.846 204.359L227.971 176.199L702.116 176.119C702.521 177.262 703.608 178.092 704.898 178.091C706.537 178.091 707.864 176.763 707.863 175.141C707.845 173.5 706.518 172.173 704.879 172.173Z" fill="url(#paint9_linear_705_9946)"/>
<path d="M704.875 152.573C703.586 152.573 702.499 153.403 702.094 154.546L219.825 154.628L188.845 185.646L117.905 185.658L99.1488 166.891L72.6774 166.896C72.272 165.753 71.185 164.923 69.8955 164.923C68.256 164.923 66.9298 166.251 66.9301 167.874C66.9304 169.515 68.257 170.842 69.8965 170.842C71.186 170.842 72.2727 170.012 72.6778 168.868L98.3386 168.864L117.095 187.631L189.656 187.618L220.635 156.601L702.113 156.519C702.518 157.662 703.605 158.492 704.894 158.492C706.534 158.491 707.86 157.164 707.86 155.523C707.841 153.9 706.515 152.573 704.875 152.573Z" fill="url(#paint10_linear_705_9946)"/>
<path d="M704.872 132.992C703.583 132.992 702.496 133.822 702.091 134.966L219.822 135.047L189.248 165.659L129.323 165.669L123.667 160.01C124.182 158.904 124.016 157.576 123.114 156.654C121.953 155.493 120.092 155.493 118.932 156.655C117.772 157.817 117.772 159.679 118.933 160.84C119.836 161.744 121.18 161.909 122.285 161.393L128.531 167.624L190.095 167.613L220.669 137.001L702.11 136.92C702.515 138.063 703.602 138.893 704.892 138.892C706.531 138.892 707.857 137.564 707.857 135.942C707.838 134.319 706.512 132.992 704.872 132.992Z" fill="url(#paint11_linear_705_9946)"/>
<path d="M20.8887 125.972C21.7915 126.876 23.1362 127.041 24.2414 126.525L37.2123 139.485L175.003 139.461L197.013 117.424L702.106 117.339C702.512 118.482 703.599 119.311 704.888 119.311C706.528 119.311 707.854 117.983 707.854 116.361C707.853 114.72 706.527 113.392 704.887 113.393C703.598 113.393 702.511 114.223 702.106 115.366L196.184 115.452L174.174 137.489L38.004 137.512L25.6228 125.123C26.1384 124.017 25.9724 122.69 25.0696 121.768C23.9088 120.606 22.0483 120.607 20.888 121.769C19.7277 122.949 19.728 124.811 20.8887 125.972Z" fill="url(#paint12_linear_705_9946)"/>
<path d="M58.0612 114.701L63.2754 119.918L127.695 119.907L149.704 97.8697L702.103 97.7763C702.509 98.9194 703.596 99.7489 704.885 99.7487C706.525 99.7484 707.851 98.4206 707.851 96.7797C707.85 95.1387 706.524 93.8114 704.884 93.8117C703.595 93.8119 702.508 94.6418 702.103 95.785L148.893 95.8786L126.884 117.916L64.1039 117.926L59.461 113.281C59.9766 112.174 59.8106 110.847 58.9078 109.925C57.7471 108.764 55.8865 108.764 54.7262 109.926C53.5659 111.088 53.5662 112.95 54.7269 114.111C55.6297 115.051 56.9745 115.217 58.0612 114.701Z" fill="url(#paint13_linear_705_9946)"/>
<path d="M77.858 80.7533C78.7605 79.8497 78.9261 78.5037 78.4102 77.3975L100.788 55.0102L140.339 55.0035L163.572 78.2497L702.1 78.1586C702.505 79.3017 703.592 80.1312 704.882 80.131C706.521 80.1307 707.847 78.8029 707.847 77.1804C707.847 75.5394 706.52 74.2121 704.881 74.2124C703.591 74.2126 702.504 75.0425 702.099 76.1857L164.382 76.2767L141.149 53.0305L99.9774 53.0375L77.0283 75.9965C75.9229 75.4804 74.5966 75.6466 73.6758 76.5502C72.5154 77.712 72.5157 79.5742 73.6765 80.7356C74.8188 81.9154 76.6977 81.9151 77.858 80.7533Z" fill="url(#paint14_linear_705_9946)"/>
<path d="M146.118 25.7231L179.06 58.6845L702.096 58.596C702.501 59.7391 703.588 60.5686 704.878 60.5684C706.517 60.5681 707.844 59.2403 707.843 57.6178C707.843 55.9768 706.516 54.6495 704.877 54.6498C703.587 54.65 702.501 55.4799 702.096 56.6231L179.871 56.7115L147.499 24.3216C148.015 23.2152 147.849 21.8877 146.946 20.966C145.785 19.8046 143.925 19.8049 142.764 20.9667C141.604 22.1285 141.604 23.9907 142.765 25.1521C143.668 26.0738 145.012 26.2396 146.118 25.7231Z" fill="url(#paint15_linear_705_9946)"/>
</g>
<defs>
<filter id="filter0_ddi_705_9946" x="0.0175781" y="0.0952148" width="727.864" height="413.553" filterUnits="userSpaceOnUse" color-interpolation-filters="sRGB">
<feFlood flood-opacity="0" result="BackgroundImageFix"/>
<feColorMatrix in="SourceAlpha" type="matrix" values="0 0 0 0 0 0 0 0 0 0 0 0 0 0 0 0 0 0 127 0" result="hardAlpha"/>
<feOffset/>
<feGaussianBlur stdDeviation="10"/>
<feComposite in2="hardAlpha" operator="out"/>
<feColorMatrix type="matrix" values="0 0 0 0 1 0 0 0 0 1 0 0 0 0 1 0 0 0 0.2 0"/>
<feBlend mode="normal" in2="BackgroundImageFix" result="effect1_dropShadow_705_9946"/>
<feColorMatrix in="SourceAlpha" type="matrix" values="0 0 0 0 0 0 0 0 0 0 0 0 0 0 0 0 0 0 127 0" result="hardAlpha"/>
<feOffset/>
<feGaussianBlur stdDeviation="2.5"/>
<feComposite in2="hardAlpha" operator="out"/>
<feColorMatrix type="matrix" values="0 0 0 0 1 0 0 0 0 1 0 0 0 0 1 0 0 0 0.15 0"/>
<feBlend mode="normal" in2="effect1_dropShadow_705_9946" result="effect2_dropShadow_705_9946"/>
<feBlend mode="normal" in="SourceGraphic" in2="effect2_dropShadow_705_9946" result="shape"/>
<feColorMatrix in="SourceAlpha" type="matrix" values="0 0 0 0 0 0 0 0 0 0 0 0 0 0 0 0 0 0 127 0" result="hardAlpha"/>
<feOffset/>
<feGaussianBlur stdDeviation="3.5"/>
<feComposite in2="hardAlpha" operator="arithmetic" k2="-1" k3="1"/>
<feColorMatrix type="matrix" values="0 0 0 0 1 0 0 0 0 1 0 0 0 0 1 0 0 0 0.3 0"/>
<feBlend mode="normal" in2="shape" result="effect3_innerShadow_705_9946"/>
</filter>
<linearGradient id="paint0_linear_705_9946" x1="707.879" y1="377.113" x2="162.395" y2="377.205" gradientUnits="userSpaceOnUse">
<stop stop-color="white"/>
<stop offset="0.7213" stop-color="white"/>
<stop offset="0.9332" stop-color="white"/>
</linearGradient>
<linearGradient id="paint1_linear_705_9946" x1="707.876" y1="358.722" x2="224.714" y2="358.804" gradientUnits="userSpaceOnUse">
<stop stop-color="white"/>
<stop offset="0.7213" stop-color="white"/>
<stop offset="0.9332" stop-color="white"/>
</linearGradient>
<linearGradient id="paint2_linear_705_9946" x1="707.869" y1="318.175" x2="200.656" y2="318.261" gradientUnits="userSpaceOnUse">
<stop stop-color="white"/>
<stop offset="0.7213" stop-color="white"/>
<stop offset="0.9332" stop-color="white"/>
</linearGradient>
<linearGradient id="paint3_linear_705_9946" x1="707.865" y1="296.693" x2="97.3041" y2="296.797" gradientUnits="userSpaceOnUse">
<stop stop-color="white"/>
<stop offset="0.7213" stop-color="white"/>
<stop offset="0.9332" stop-color="white"/>
</linearGradient>
<linearGradient id="paint4_linear_705_9946" x1="707.862" y1="275.27" x2="75.1342" y2="275.377" gradientUnits="userSpaceOnUse">
<stop stop-color="white"/>
<stop offset="0.7213" stop-color="white"/>
<stop offset="0.9332" stop-color="white"/>
</linearGradient>
<linearGradient id="paint5_linear_705_9946" x1="707.857" y1="246.317" x2="160.202" y2="246.41" gradientUnits="userSpaceOnUse">
<stop stop-color="white"/>
<stop offset="0.7213" stop-color="white"/>
<stop offset="0.9332" stop-color="white"/>
</linearGradient>
<linearGradient id="paint6_linear_705_9946" x1="707.855" y1="230.414" x2="186.831" y2="230.502" gradientUnits="userSpaceOnUse">
<stop stop-color="white"/>
<stop offset="0.7213" stop-color="white"/>
<stop offset="0.9332" stop-color="white"/>
</linearGradient>
<linearGradient id="paint7_linear_705_9946" x1="707.852" y1="214.299" x2="305.059" y2="214.367" gradientUnits="userSpaceOnUse">
<stop stop-color="white"/>
<stop offset="0.7213" stop-color="white"/>
<stop offset="0.9332" stop-color="white"/>
</linearGradient>
<linearGradient id="paint8_linear_705_9946" x1="707.849" y1="200.81" x2="230.396" y2="200.89" gradientUnits="userSpaceOnUse">
<stop stop-color="white"/>
<stop offset="0.7213" stop-color="white"/>
<stop offset="0.9332" stop-color="white"/>
</linearGradient>
<linearGradient id="paint9_linear_705_9946" x1="707.848" y1="193.767" x2="122.561" y2="193.866" gradientUnits="userSpaceOnUse">
<stop stop-color="white"/>
<stop offset="0.7213" stop-color="white"/>
<stop offset="0.9332" stop-color="white"/>
</linearGradient>
<linearGradient id="paint10_linear_705_9946" x1="707.844" y1="170.054" x2="66.9605" y2="170.162" gradientUnits="userSpaceOnUse">
<stop stop-color="white"/>
<stop offset="0.7213" stop-color="white"/>
<stop offset="0.9332" stop-color="white"/>
</linearGradient>
<linearGradient id="paint11_linear_705_9946" x1="707.841" y1="150.267" x2="118.073" y2="150.367" gradientUnits="userSpaceOnUse">
<stop stop-color="white"/>
<stop offset="0.7213" stop-color="white"/>
<stop offset="0.9332" stop-color="white"/>
</linearGradient>
<linearGradient id="paint12_linear_705_9946" x1="707.837" y1="126.396" x2="20.0226" y2="126.512" gradientUnits="userSpaceOnUse">
<stop stop-color="white"/>
<stop offset="0.7213" stop-color="white"/>
<stop offset="0.9332" stop-color="white"/>
</linearGradient>
<linearGradient id="paint13_linear_705_9946" x1="707.834" y1="106.809" x2="53.8551" y2="106.919" gradientUnits="userSpaceOnUse">
<stop stop-color="white"/>
<stop offset="0.7213" stop-color="white"/>
<stop offset="0.9332" stop-color="white"/>
</linearGradient>
<linearGradient id="paint14_linear_705_9946" x1="707.827" y1="67.2365" x2="72.8049" y2="67.344" gradientUnits="userSpaceOnUse">
<stop stop-color="white"/>
<stop offset="0.7213" stop-color="white"/>
<stop offset="0.9332" stop-color="white"/>
</linearGradient>
<linearGradient id="paint15_linear_705_9946" x1="707.822" y1="40.2903" x2="141.903" y2="40.386" gradientUnits="userSpaceOnUse">
<stop stop-color="white"/>
<stop offset="0.7213" stop-color="white"/>
<stop offset="0.9332" stop-color="white"/>
</linearGradient>
</defs>
</svg>
